<svg width="1209" height="319" viewBox="0 0 1209 319" fill="none" xmlns="http://www.w3.org/2000/svg">
<g filter="url(#filter0_d)">
<path d="M1198.55 203.042C1197.77 202.791 1197 202.542 1196.23 202.293C1184.55 191.733 1124.19 123.848 914.671 112.233C624.592 78.1798 585.811 140.757 404.317 112.233C-29.2689 44.0923 0.997925 121.693 0.997925 112.233C0.997925 102.774 163.877 102.774 432.239 144.395C667.567 180.892 800.912 74.8104 1196.23 202.293C1197.87 203.773 1198.55 204.127 1198.55 203.042Z" fill="#1D3557"/>
</g>
<g filter="url(#filter1_d)">
<path d="M1197.74 222.644C1184.96 254.958 1074.92 308.441 909.171 182.049C909.171 182.049 800.652 111.118 920.016 203.349C1152.42 382.925 1191.31 258.333 1197.74 222.644C1198.57 220.549 1198.99 218.543 1198.99 216.681C1198.99 211.022 1199.2 214.543 1197.74 222.644Z" fill="#E63946"/>
</g>
<g filter="url(#filter2_d)">
<path d="M242.987 55.5649C187.143 47.9976 102.859 67.5466 67.698 78.267C180.937 59.3486 286.421 87.7262 291.075 78.267C337.818 -41.2627 746.578 71.5798 762.286 77.9864C762.407 78.0798 762.528 78.1734 762.648 78.267C762.865 78.267 762.739 78.1708 762.286 77.9864C638.065 -18.1912 388.745 -4.95602 329.856 13.9445C314.208 18.9666 265.221 42.3221 242.987 55.5649Z" fill="#1D3557"/>
</g>
<g filter="url(#filter3_d)">
<path d="M66.332 243.949H42.9922V296H13.6953V153.812H66.5273C83.3242 153.812 96.2799 157.556 105.395 165.043C114.509 172.53 119.066 183.109 119.066 196.781C119.066 206.482 116.951 214.587 112.719 221.098C108.552 227.543 102.204 232.686 93.6758 236.527L124.438 294.633V296H92.9922L66.332 243.949ZM42.9922 220.219H66.625C73.9818 220.219 79.6784 218.363 83.7148 214.652C87.7513 210.876 89.7695 205.701 89.7695 199.125C89.7695 192.419 87.849 187.146 84.0078 183.305C80.2318 179.464 74.4049 177.543 66.5273 177.543H42.9922V220.219ZM198.066 243.949H174.727V296H145.43V153.812H198.262C215.059 153.812 228.014 157.556 237.129 165.043C246.243 172.53 250.801 183.109 250.801 196.781C250.801 206.482 248.685 214.587 244.453 221.098C240.286 227.543 233.939 232.686 225.41 236.527L256.172 294.633V296H224.727L198.066 243.949ZM174.727 220.219H198.359C205.716 220.219 211.413 218.363 215.449 214.652C219.486 210.876 221.504 205.701 221.504 199.125C221.504 192.419 219.583 187.146 215.742 183.305C211.966 179.464 206.139 177.543 198.262 177.543H174.727V220.219Z" fill="#E63946"/>
<path d="M371.098 246.515H346.223V296H323.906V167.569H369.069C383.888 167.569 395.325 170.892 403.382 177.537C411.438 184.182 415.466 193.796 415.466 206.381C415.466 214.966 413.379 222.17 409.203 227.992C405.087 233.755 399.324 238.194 391.915 241.311L420.759 294.853V296H396.854L371.098 246.515ZM346.223 228.609H369.157C376.684 228.609 382.565 226.727 386.799 222.964C391.033 219.141 393.15 213.937 393.15 207.351C393.15 200.471 391.18 195.149 387.24 191.385C383.359 187.622 377.537 185.681 369.775 185.564H346.223V228.609ZM502.669 238.665H449.92V278.182H511.578V296H427.604V167.569H510.96V185.564H449.92V221.023H502.669V238.665ZM543.033 248.279V296H520.716V167.569H569.848C584.196 167.569 595.575 171.303 603.984 178.772C612.452 186.24 616.686 196.119 616.686 208.409C616.686 220.994 612.541 230.785 604.249 237.783C596.016 244.781 584.461 248.279 569.583 248.279H543.033ZM543.033 230.373H569.848C577.787 230.373 583.844 228.521 588.019 224.816C592.194 221.053 594.282 215.643 594.282 208.586C594.282 201.647 592.165 196.119 587.931 192.003C583.697 187.828 577.875 185.681 570.465 185.564H543.033V230.373ZM683.425 266.097H633.675L623.267 296H600.068L648.582 167.569H668.606L717.208 296H693.921L683.425 266.097ZM639.938 248.103H677.162L658.55 194.825L639.938 248.103ZM746.37 296H724.141V167.569H746.37V296ZM811.961 246.515H787.087V296H764.77V167.569H809.932C824.751 167.569 836.189 170.892 844.245 177.537C852.302 184.182 856.33 193.796 856.33 206.381C856.33 214.966 854.242 222.17 850.067 227.992C845.951 233.755 840.188 238.194 832.778 241.311L861.622 294.853V296H837.718L811.961 246.515ZM787.087 228.609H810.021C817.548 228.609 823.428 226.727 827.662 222.964C831.896 219.141 834.013 213.937 834.013 207.351C834.013 200.471 832.043 195.149 828.103 191.385C824.222 187.622 818.4 185.681 810.638 185.564H787.087V228.609Z" fill="#1D3557"/>
</g>
<defs>
<filter id="filter0_d" x="0.543457" y="83.9438" width="1208" height="129.73" filterUnits="userSpaceOnUse" color-interpolation-filters="sRGB">
<feFlood flood-opacity="0" result="BackgroundImageFix"/>
<feColorMatrix in="SourceAlpha" type="matrix" values="0 0 0 0 0 0 0 0 0 0 0 0 0 0 0 0 0 0 127 0" result="hardAlpha"/>
<feOffset dx="5" dy="5"/>
<feGaussianBlur stdDeviation="2.5"/>
<feColorMatrix type="matrix" values="0 0 0 0 0.576471 0 0 0 0 0.576471 0 0 0 0 0.588235 0 0 0 1 0"/>
<feBlend mode="normal" in2="BackgroundImageFix" result="effect1_dropShadow"/>
<feBlend mode="normal" in="SourceGraphic" in2="effect1_dropShadow" result="shape"/>
</filter>
<filter id="filter1_d" x="864" y="156" width="345" height="152" filterUnits="userSpaceOnUse" color-interpolation-filters="sRGB">
<feFlood flood-opacity="0" result="BackgroundImageFix"/>
<feColorMatrix in="SourceAlpha" type="matrix" values="0 0 0 0 0 0 0 0 0 0 0 0 0 0 0 0 0 0 127 0" result="hardAlpha"/>
<feOffset dx="5" dy="5"/>
<feGaussianBlur stdDeviation="2.5"/>
<feColorMatrix type="matrix" values="0 0 0 0 0.576471 0 0 0 0 0.576471 0 0 0 0 0.588235 0 0 0 1 0"/>
<feBlend mode="normal" in2="BackgroundImageFix" result="effect1_dropShadow"/>
<feBlend mode="normal" in="SourceGraphic" in2="effect1_dropShadow" result="shape"/>
</filter>
<filter id="filter2_d" x="67.6982" y="0.54248" width="705.053" height="89.7145" filterUnits="userSpaceOnUse" color-interpolation-filters="sRGB">
<feFlood flood-opacity="0" result="BackgroundImageFix"/>
<feColorMatrix in="SourceAlpha" type="matrix" values="0 0 0 0 0 0 0 0 0 0 0 0 0 0 0 0 0 0 127 0" result="hardAlpha"/>
<feOffset dx="5" dy="5"/>
<feGaussianBlur stdDeviation="2.5"/>
<feColorMatrix type="matrix" values="0 0 0 0 0.576471 0 0 0 0 0.576471 0 0 0 0 0.588235 0 0 0 1 0"/>
<feBlend mode="normal" in2="BackgroundImageFix" result="effect1_dropShadow"/>
<feBlend mode="normal" in="SourceGraphic" in2="effect1_dropShadow" result="shape"/>
</filter>
<filter id="filter3_d" x="13.6953" y="153.812" width="857.927" height="152.188" filterUnits="userSpaceOnUse" color-interpolation-filters="sRGB">
<feFlood flood-opacity="0" result="BackgroundImageFix"/>
<feColorMatrix in="SourceAlpha" type="matrix" values="0 0 0 0 0 0 0 0 0 0 0 0 0 0 0 0 0 0 127 0" result="hardAlpha"/>
<feOffset dx="5" dy="5"/>
<feGaussianBlur stdDeviation="2.5"/>
<feComposite in2="hardAlpha" operator="out"/>
<feColorMatrix type="matrix" values="0 0 0 0 0.113725 0 0 0 0 0.207843 0 0 0 0 0.341176 0 0 0 0.76 0"/>
<feBlend mode="normal" in2="BackgroundImageFix" result="effect1_dropShadow"/>
<feBlend mode="normal" in="SourceGraphic" in2="effect1_dropShadow" result="shape"/>
</filter>
</defs>
</svg>
